# AST/ASF file generated using VICON BodyLanguage
# -----------------------------------------------
:version 1.10
:name VICON
:units
  mass 1.0
  length 0.45
  angle deg
:documentation
   .ast/.asf automatically generated from VICON data using
   VICON BodyBuilder and BodyLanguage model FoxedUp or BRILLIANT.MOD
:root
   order TX TY TZ RX RY RZ
   axis XYZ
   position 0 0 0  
   orientation 0 0 0 
:bonedata
  begin
     id 1 
     name lhipjoint
     direction 0.584852 -0.759097 0.285867 
     length 2.43633 
     axis 0 0 0  XYZ
  end
  begin
     id 2 
     name lfemur
     direction 0.34202 -0.939693 0  
     length 7.14704  
     axis 0 0 20  XYZ
    dof rx ry rz
    limits (-160.0 20.0)
           (-70.0 70.0)
           (-60.0 70.0)
  end
  begin
     id 3 
     name ltibia
     direction 0.342022 -0.939692 0   
     length 7.68483   
     axis 0 0 20   XYZ
    dof rx
    limits (-10.0 170.0)
  end
  begin
     id 4 
     name lfoot
     direction 0.0999605 -0.274639 0.956337   
     length 2.40452   
     axis -90 7.62852e-016 20   XYZ
    dof rx rz
    limits (-45.0 90.0)
           (-70.0 20.0)
  end
  begin
     id 5 
     name ltoes
     direction 1.53468e-011 -4.21881e-011 1   
     length 1.19837   
     axis -90 7.62852e-016 20   XYZ
    dof rx
    limits (-90.0 20.0)
  end
  begin
     id 6 
     name rhipjoint
     direction -0.569886 -0.769002 0.289597   
     length 2.40495  
     axis 0 0 0  XYZ 
  end
  begin
     id 7 
     name rfemur
     direction -0.34202 -0.939693 0   
     length 7.45086   
     axis 0 0 -20   XYZ
    dof rx ry rz
    limits (-160.0 20.0)
           (-70.0 70.0)
           (-70.0 60.0)
  end
  begin
     id 8 
     name rtibia
     direction -0.34202 -0.939693 0   
     length 7.76831   
     axis 0 0 -20   XYZ
    dof rx
    limits (-10.0 170.0)
 end
 begin
     id 9 
     name rfoot
     direction -0.0798572 -0.219406 0.97236   
     length 2.35911  
     axis -90 -7.62852e-016 -20   XYZ
    dof rx rz
    limits (-45.0 90.0)
           (-20.0 70.0)
  end
  begin
     id 10 
     name rtoes
     direction -1.53469e-011 -4.21728e-011 1   
     length 1.18261   
     axis -90 -7.62852e-016 -20   XYZ
    dof rx
    limits (-90.0 20.0)
  end
  begin
     id 11 
     name lowerback
     direction 0.0242088 0.999437 0.0232389   
     length 2.1561   
     axis 0 0 0   XYZ
    dof rx ry rz
    limits (-20.0 45.0)
           (-30.0 30.0)
           (-30.0 30.0)
  end
  begin
     id 12 
     name upperback
     direction -0.0356893 0.999013 -0.0264323   
     length 2.14431   
     axis 0 0 0   XYZ
    dof rx ry rz
    limits (-20.0 45.0)
           (-30.0 30.0)
           (-30.0 30.0)
  end
  begin
     id 13 
     name thorax
     direction -0.0472163 0.998194 -0.0371284   
     length 2.16169   
     axis 0 0 0   XYZ
    dof rx ry rz
    limits (-20.0 45.0)
           (-30.0 30.0)
           (-30.0 30.0)
  end
  begin
     id 14 
     name lowerneck
     direction 0.00863244 0.999921 0.00911972   
     length 1.58651   
     axis 0 0 0   XYZ
    dof rx ry rz
    limits (-20.0 45.0)
           (-30.0 30.0)
           (-30.0 30.0)
  end
  begin
     id 15 
     name upperneck
     direction 0.149523 0.979068 -0.138086   
     length 1.57486   
     axis 0 0 0   XYZ
    dof rx ry rz
    limits (-20.0 45.0)
           (-30.0 30.0)
           (-30.0 30.0)
  end
  begin
     id 16
     name head
     direction 0.0445219 0.997708 -0.0509576  
     length 1.6019  
     axis 0 0 0   XYZ
    dof rx ry rz
    limits (-20.0 45.0)
           (-30.0 30.0)
           (-30.0 30.0)
  end
  begin
     id 17 
     name lclavicle
     direction 0.911271 0.381667 -0.154644  
     length 3.80848  
     axis 0 0 0   XYZ
    dof ry rz
    limits (-20.0 10.0)
           (0.0 20.0)
  end
  begin
     id 18 
     name lhumerus
     direction 1 -4.49003e-011 2.1308e-027   
     length 5.19069   
     axis 180 -30 -90   XYZ
    dof rx ry rz
    limits (-60.0 90.0)
           (-90.0 90.0)
           (-90.0 90.0)
  end
  begin
     id 19
     name lradius
     direction 1 -4.48914e-011 4.01554e-027   
     length 3.30016   
     axis 180 -30 -90   XYZ
    dof rx
    limits (-10.0 170.0)
  end
  begin
     id 20
     name lwrist
     direction 1 -4.49003e-011 1.1934e-026   
     length 1.65008   
     axis -8.46377e-015 90 90   XYZ
    dof ry
    limits (-180.0 0.0)
 end
  begin
     id 21 
     name lhand
     direction 1 -4.49034e-011 2.38659e-026   
     length 0.707698   
     axis -1.52313e-014 90 90   XYZ
    dof rx rz
    limits (-90.0 90.0)
           (-45.0 45.0)
  end
  begin
     id 22 
     name lfingers
     direction 1 -4.48691e-011 4.77775e-026   
     length 0.570564   
     axis -3.04623e-014 90 90   XYZ
    dof rx
    limits (0.0 90.0)
  end
  begin
     id 23
     name lthumb
     direction 0.707107 -6.34832e-011 0.707107   
     length 0.819219   
     axis -90 45 -1.62303e-014   XYZ
    dof rx rz
    limits (-45.0 45.0)
           (-45.0 45.0)
  end
  begin
     id 24 
     name rclavicle
     direction -0.815579 0.573708 -0.0754329   
     length 3.54371  
     axis 0 0 0   XYZ 
    dof ry rz
    limits (-10.0 20.0)
           (-20.0 0.0)
  end
  begin
     id 25 
     name rhumerus
     direction -1 -4.48956e-011 3.05351e-028  
     length 5.23924   
     axis 180 30 90   XYZ
    dof rx ry rz
    limits (-90.0 60.0)
           (-90.0 90.0)
           (-90.0 90.0)
  end
  begin
     id 26 
     name rradius
     direction -1 -4.49013e-011 3.53849e-027   
     length 3.32953   
     axis 180 30 90   XYZ
    dof rx
    limits (-10.0 170.0)
  end
  begin
     id 27 
     name rwrist
     direction -1 -4.48901e-011 1.19374e-026   
     length 1.66477   
     axis -8.46377e-015 -90 -90   XYZ
    dof ry
    limits (-180.0 0.0)
  end
  begin
     id 28
     name rhand
     direction -1 -4.48877e-011 2.38764e-026   
     length 0.607414   
     axis -1.52313e-014 -90 -90   XYZ
    dof rx rz
    limits (-90.0 90.0)
           (-45.0 45.0)
  end
  begin
     id 29
     name rfingers
     direction -1 -4.48882e-011 4.77521e-026   
     length 0.489712   
     axis -3.04623e-014 -90 -90   XYZ
    dof rx
    limits (0.0 90.0)
  end
  begin
     id 30
     name rthumb
     direction -0.707107 -6.34974e-011 0.707107   
     length 0.703132   
     axis -90 -45 1.62303e-014   XYZ
    dof rx rz
    limits (-45.0 45.0)
           (-45.0 45.0)
  end
:hierarchy
  begin
    root lhipjoint rhipjoint lowerback
    lhipjoint lfemur
    lfemur ltibia
    ltibia lfoot
    lfoot ltoes
    rhipjoint rfemur
    rfemur rtibia
    rtibia rfoot
    rfoot rtoes
    lowerback upperback
    upperback thorax
    thorax lowerneck lclavicle rclavicle
    lowerneck upperneck
    upperneck head
    lclavicle lhumerus
    lhumerus lradius
    lradius lwrist
    lwrist lhand lthumb
    lhand lfingers
    rclavicle rhumerus
    rhumerus rradius
    rradius rwrist
    rwrist rhand rthumb
    rhand rfingers
  end

#!OML:ASF E:\VariousWalksJay\Project 1\Capture day 1\Session 1\Actor2.ASF
:FULLY-SPECIFIED
:DEGREES
1071
root 7.50107 16.3725 40.5477 185.369 -33.7977 -180.544
lowerback -6.23671 -3.81961 -1.35826
upperback -3.88801 -5.37069 -3.76017
thorax -0.772496 -2.85765 -3.39783
lowerneck -9.53632 -2.80215 -2.98538
upperneck 12.1479 -5.43822 11.4608
head 5.63846 -2.21444 3.65562
rclavicle -7.5737e-014 -5.88403e-014
rhumerus -60.1844 27.0367 -101.192
rradius 59.9278
rwrist 4.18112
rhand 0.629773 -6.07407
rfingers 7.12502
rthumb 26.1934 -34.2868
lclavicle -7.5737e-014 -5.88403e-014
lhumerus -33.2197 -29.941 80.4864
lradius 53.6775
lwrist 6.57987
lhand 1.81064 -1.81418
lfingers 7.12502
lthumb 27.3235 26.2257
rfemur -27.6904 2.91556 15.6489
rtibia 62.7642
rfoot -18.0701 -9.87384
rtoes -13.0981
lfemur -4.95021 16.4342 -22.9761
ltibia 27.2313
lfoot -27.2302 5.10475
ltoes -1.68728
1072
root 7.47365 16.3708 40.5253 185.44 -33.5898 -180.643
lowerback -6.30993 -3.89991 -1.46321
upperback -3.90769 -5.47581 -3.75572
thorax -0.747888 -2.91057 -3.34565
lowerneck -9.913 -2.81605 -2.99095
upperneck 12.3115 -5.46913 11.4429
head 5.75703 -2.21255 3.64523
rclavicle -3.83654e-014 -1.90833e-014
rhumerus -60.4964 27.4957 -101.284
rradius 60.3275
rwrist 3.98426
rhand 1.2785 -6.25805
rfingers 7.12502
rthumb 26.8144 -34.3771
lclavicle -3.83654e-014 -1.90833e-014
lhumerus -32.7871 -30.0115 80.1951
lradius 54.0971
lwrist 6.60926
lhand 2.05608 -1.64037
lfingers 7.12502
lthumb 27.5582 26.3623
rfemur -28.4202 2.75956 15.5626
rtibia 64
rfoot -17.0234 -9.79013
rtoes -11.5313
lfemur -4.66785 16.6345 -23.0844
ltibia 26.9309
lfoot -27.2051 5.07243
ltoes -1.66305
1073
root 7.44198 16.369 40.5048 185.553 -33.3531 -180.712
lowerback -6.37746 -3.95579 -1.41497
upperback -4.07771 -5.57722 -3.79379
thorax -0.900593 -2.97246 -3.41383
lowerneck -9.88138 -2.79762 -3.00341
upperneck 12.3976 -5.45863 11.4472
head 5.77784 -2.20889 3.65023
rclavicle 1.35174e-014 -3.33958e-014
rhumerus -61.0859 27.8914 -101.563
rradius 60.7052
rwrist 3.82552
rhand 1.9408 -6.38996
rfingers 7.12502
rthumb 27.448 -34.4101
lclavicle 1.35174e-014 -3.33958e-014
lhumerus -32.4472 -30.1051 79.9505
lradius 54.3313
lwrist 6.60894
lhand 2.32555 -1.48279
lfingers 7.12502
lthumb 27.8159 26.4785
rfemur -29.2726 2.58756 15.479
rtibia 65.2431
rfoot -16.1043 -9.79273
rtoes -10.0968
lfemur -4.44165 16.8003 -23.2137
ltibia 26.6088
lfoot -27.178 5.1309
ltoes -1.63238
1074
root 7.4133 16.3667 40.4817 185.642 -33.1101 -180.775
lowerback -6.54088 -3.98834 -1.40999
upperback -4.10625 -5.62671 -3.85203
thorax -0.849324 -3.00292 -3.49175
lowerneck -10.0581 -2.79456 -2.88774
upperneck 12.4309 -5.47532 11.425
head 5.81718 -2.2073 3.62054
rclavicle 1.31198e-014 -5.24792e-014
rhumerus -61.4713 28.1628 -101.661
rradius 61.1976
rwrist 3.68679
rhand 2.3912 -6.43606
rfingers 7.12502
rthumb 27.8787 -34.3871
lclavicle 1.31198e-014 -5.24792e-014
lhumerus -31.897 -30.2705 79.5558
lradius 54.6329
lwrist 6.62067
lhand 2.45811 -1.26775
lfingers 7.12502
lthumb 27.9426 26.6729
rfemur -30.1183 2.41818 15.4401
rtibia 66.4894
rfoot -15.1254 -9.95326
rtoes -7.28215
lfemur -4.20588 17.0684 -23.3006
ltibia 26.2941
lfoot -27.1363 5.10453
ltoes -1.61596
1075
root 7.38707 16.3656 40.454 185.659 -32.9371 -180.847
lowerback -6.70373 -4.06696 -1.50626
upperback -4.07671 -5.72219 -3.86361
thorax -0.726058 -3.05014 -3.47139
lowerneck -10.1628 -2.7807 -2.91536
upperneck 12.3611 -5.45658 11.5033
head 5.8154 -2.19307 3.65031
rclavicle 1.92821e-014 5.24792e-014
rhumerus -61.7757 28.517 -101.721
rradius 61.63
rwrist 3.51379
rhand 2.73572 -6.52592
rfingers 7.12502
rthumb 28.208 -34.4231
lclavicle 1.92821e-014 5.24792e-014
lhumerus -31.3364 -30.3566 79.1815
lradius 54.9511
lwrist 6.61874
lhand 2.68539 -1.19129
lfingers 7.12502
lthumb 28.1599 26.7138
rfemur -30.8613 2.18438 15.4448
rtibia 67.716
rfoot -14.1907 -10.1657
rtoes -5.43287
lfemur -3.8583 17.2807 -23.3373
ltibia 25.9857
lfoot -27.1113 5.05669
ltoes -1.70345
1076
root 7.3586 16.3629 40.4306 185.696 -32.7844 -180.921
lowerback -6.65021 -4.13484 -1.51563
upperback -4.23015 -5.83842 -3.89419
thorax -0.923521 -3.11704 -3.49109
lowerneck -10.0511 -2.76379 -2.92634
upperneck 12.3334 -5.4364 11.5226
head 5.78648 -2.18912 3.66088
rclavicle 5.64548e-014 -2.70347e-014
rhumerus -62.3746 28.7812 -101.879
rradius 62.0983
rwrist 3.3126
rhand 3.67549 -6.75433
rfingers 7.12502
rthumb 29.1058 -34.4998
lclavicle 5.64548e-014 -2.70347e-014
lhumerus -31.1077 -30.4416 78.9538
lradius 55.2913
lwrist 6.60903
lhand 2.91012 -0.896176
lfingers 7.12502
lthumb 28.3747 26.9734
rfemur -31.6364 1.88318 15.4409
rtibia 68.9271
rfoot -13.2904 -10.3349
rtoes -3.48137
lfemur -3.52454 17.4713 -23.3959
ltibia 25.6601
lfoot -27.1124 4.93279
ltoes -1.39171
1077
root 7.33226 16.3591 40.4043 185.729 -32.6021 -180.957
lowerback -6.61977 -4.20142 -1.51837
upperback -4.30604 -5.9406 -3.89818
thorax -1.02475 -3.17252 -3.49213
lowerneck -10.8512 -2.93799 -2.44821
upperneck 13.0394 -5.68213 10.7003
head 6.12843 -2.287 3.29162
rclavicle 3.18055e-015 -7.63333e-014
rhumerus -62.8048 29.0888 -101.945
rradius 62.58
rwrist 3.08313
rhand 3.8687 -6.66998
rfingers 7.12502
rthumb 29.2903 -34.3834
lclavicle 3.18055e-015 -7.63333e-014
lhumerus -30.6684 -30.4755 78.6266
lradius 55.6175
lwrist 6.6685
lhand 3.11423 -0.700467
lfingers 7.12502
lthumb 28.5697 27.1365
rfemur -32.4496 1.62254 15.4998
rtibia 70.1147
rfoot -12.388 -10.632
rtoes -2.64765
lfemur -3.24451 17.6608 -23.4329
ltibia 25.3232
lfoot -26.9344 5.10227
ltoes -2.2439
1078
root 7.30677 16.3588 40.3751 185.743 -32.4854 -181.043
lowerback -6.68705 -4.28447 -1.63123
upperback -4.33677 -6.05157 -3.90673
thorax -1.0152 -3.22911 -3.44902
lowerneck -10.6002 -2.89435 -2.62609
upperneck 12.7219 -5.60902 10.985
head 5.99306 -2.26011 3.4201
rclavicle -7.81224e-014 -6.83819e-014
rhumerus -63.1887 29.3997 -102.005
rradius 63.0363
rwrist 2.79606
rhand 4.14279 -6.77567
rfingers 7.12502
rthumb 29.552 -34.4431
lclavicle -7.81224e-014 -6.83819e-014
lhumerus -30.1943 -30.4924 78.3154
lradius 55.8885
lwrist 6.71864
lhand 3.45178 -0.610596
lfingers 7.12502
lthumb 28.8922 27.1717
rfemur -33.1812 1.38476 15.5559
rtibia 71.2564
rfoot -11.6073 -10.9973
rtoes -0.766658
lfemur -2.87546 17.9222 -23.4533
ltibia 24.9915
lfoot -26.9144 4.98889
ltoes -2.24047
1079
root 7.27822 16.3533 40.3491 185.771 -32.2886 -181.151
lowerback -6.6433 -4.35653 -1.64004
upperback -4.40149 -6.16261 -3.94283
thorax -1.11569 -3.28987 -3.47936
lowerneck -10.8604 -2.91382 -2.47515
upperneck 12.9123 -5.63954 10.7509
head 6.08937 -2.26802 3.31542
rclavicle 1.06946e-013 2.54444e-014
rhumerus -63.6227 29.6866 -102.067
rradius 63.5505
rwrist 2.58976
rhand 5.06911 -6.97861
rfingers 7.12502
rthumb 30.4359 -34.4861
lclavicle 1.06946e-013 2.54444e-014
lhumerus -29.8262 -30.4286 77.9751
lradius 56.2421
lwrist 6.77749
lhand 3.68434 -0.321735
lfingers 7.12502
lthumb 29.1143 27.4223
rfemur -33.9509 1.14342 15.5521
rtibia 72.3719
rfoot -11.0189 -11.3354
rtoes 0.959258
lfemur -2.50393 17.9338 -23.5852
ltibia 24.6364
lfoot -26.9164 5.14775
ltoes -2.07452
